Normalized EMG Linear Envelopes
nRows=65
nColumns=17

endheader
time	1_BAD	2_Glutmax_R	3_Vaslat_R	4_Recfem_R	5_Bifem_R	6_Gasmed_R	7_BAD	8_Soleus_R	9_Tibant_R	10_Glutmax_L	11_Vaslat_L	12_Recfem_L	13_Bifem_L	14_Gasmed_L	15_Soleus_L	16_Tibant_L	
26.673	  0.012467	  0.050556	  0.044538	  0.154356	  0.003896	  0.113426	  0.041723	  0.044856	  0.137180	  0.109348	  0.031661	  0.044813	  0.013695	  0.220096	  0.199542	  0.010647	
26.674	  0.012467	  0.050900	  0.047874	  0.155620	  0.006851	  0.110651	  0.041484	  0.043170	  0.138074	  0.109288	  0.030862	  0.045807	  0.013820	  0.217811	  0.199444	  0.011721	
26.675	  0.012467	  0.051269	  0.051377	  0.156908	  0.010177	  0.108024	  0.041251	  0.041555	  0.139024	  0.109187	  0.030083	  0.046861	  0.013950	  0.215565	  0.199364	  0.012957	
26.676	  0.012467	  0.051664	  0.055050	  0.158217	  0.013888	  0.105546	  0.041024	  0.040016	  0.140033	  0.109042	  0.029324	  0.047975	  0.014086	  0.213361	  0.199304	  0.014357	
26.677	  0.012467	  0.052091	  0.058896	  0.159549	  0.017997	  0.103221	  0.040805	  0.038560	  0.141104	  0.108856	  0.028585	  0.049147	  0.014227	  0.211201	  0.199264	  0.015922	
26.678	  0.012467	  0.052553	  0.062914	  0.160903	  0.022516	  0.101048	  0.040594	  0.037194	  0.142241	  0.108626	  0.027865	  0.050378	  0.014371	  0.209087	  0.199248	  0.017654	
26.679	  0.012467	  0.053055	  0.067108	  0.162277	  0.027459	  0.099031	  0.040390	  0.035923	  0.143446	  0.108353	  0.027165	  0.051668	  0.014520	  0.207021	  0.199256	  0.019554	
26.680	  0.012467	  0.053599	  0.071477	  0.163673	  0.032835	  0.097170	  0.040195	  0.034752	  0.144724	  0.108037	  0.026484	  0.053017	  0.014671	  0.205003	  0.199291	  0.021623	
26.681	  0.012467	  0.054191	  0.076023	  0.165091	  0.038657	  0.095464	  0.040010	  0.033688	  0.146076	  0.107678	  0.025822	  0.054423	  0.014825	  0.203034	  0.199356	  0.023860	
26.682	  0.012467	  0.054835	  0.080745	  0.166529	  0.044933	  0.093915	  0.039833	  0.032735	  0.147507	  0.107277	  0.025180	  0.055887	  0.014981	  0.201116	  0.199452	  0.026266	
26.683	  0.012467	  0.055536	  0.085644	  0.167990	  0.051672	  0.092522	  0.039667	  0.031898	  0.149019	  0.106832	  0.024555	  0.057409	  0.015139	  0.199247	  0.199583	  0.028841	
26.684	  0.012467	  0.056297	  0.090719	  0.169472	  0.058883	  0.091284	  0.039512	  0.031182	  0.150615	  0.106345	  0.023949	  0.058987	  0.015297	  0.197429	  0.199751	  0.031584	
26.685	  0.012467	  0.057123	  0.095970	  0.170976	  0.066573	  0.090200	  0.039367	  0.030590	  0.152297	  0.105815	  0.023362	  0.060621	  0.015456	  0.195660	  0.199959	  0.034493	
26.686	  0.012467	  0.058019	  0.101394	  0.172503	  0.074748	  0.089269	  0.039234	  0.030125	  0.154068	  0.105243	  0.022792	  0.062312	  0.015616	  0.193941	  0.200210	  0.037568	
26.687	  0.012467	  0.058990	  0.106992	  0.174053	  0.083413	  0.088487	  0.039112	  0.029792	  0.155931	  0.104630	  0.022239	  0.064058	  0.015774	  0.192271	  0.200507	  0.040805	
26.688	  0.012467	  0.060039	  0.112760	  0.175627	  0.092571	  0.087854	  0.039003	  0.029593	  0.157888	  0.103975	  0.021703	  0.065858	  0.015932	  0.190647	  0.200854	  0.044204	
26.689	  0.012467	  0.061172	  0.118697	  0.177224	  0.102226	  0.087365	  0.038906	  0.029531	  0.159941	  0.103279	  0.021184	  0.067712	  0.016088	  0.189070	  0.201252	  0.047761	
26.690	  0.012467	  0.062392	  0.124801	  0.178847	  0.112378	  0.087017	  0.038822	  0.029606	  0.162092	  0.102543	  0.020682	  0.069619	  0.016242	  0.187538	  0.201706	  0.051473	
26.691	  0.012467	  0.063705	  0.131067	  0.180494	  0.123029	  0.086806	  0.038751	  0.029820	  0.164342	  0.101767	  0.020196	  0.071577	  0.016394	  0.186048	  0.202219	  0.055337	
26.692	  0.012467	  0.065114	  0.137493	  0.182168	  0.134176	  0.086728	  0.038693	  0.030175	  0.166693	  0.100952	  0.019725	  0.073587	  0.016543	  0.184599	  0.202794	  0.059348	
26.693	  0.012467	  0.066624	  0.144076	  0.183867	  0.145817	  0.086778	  0.038650	  0.030671	  0.169147	  0.100099	  0.019270	  0.075646	  0.016689	  0.183189	  0.203435	  0.063502	
26.694	  0.012467	  0.068239	  0.150811	  0.185592	  0.157949	  0.086951	  0.038621	  0.031307	  0.171705	  0.099208	  0.018831	  0.077753	  0.016832	  0.181815	  0.204143	  0.067795	
26.695	  0.012467	  0.069962	  0.157693	  0.187345	  0.170565	  0.087242	  0.038605	  0.032082	  0.174368	  0.098281	  0.018406	  0.079907	  0.016970	  0.180476	  0.204924	  0.072220	
26.696	  0.012467	  0.071798	  0.164719	  0.189124	  0.183659	  0.087643	  0.038605	  0.032996	  0.177137	  0.097318	  0.017996	  0.082105	  0.017105	  0.179168	  0.205778	  0.076773	
26.697	  0.012467	  0.073750	  0.171883	  0.190929	  0.197222	  0.088150	  0.038619	  0.034047	  0.180012	  0.096321	  0.017600	  0.084347	  0.017234	  0.177889	  0.206711	  0.081448	
26.698	  0.012467	  0.075822	  0.179179	  0.192761	  0.211246	  0.088754	  0.038649	  0.035233	  0.182994	  0.095290	  0.017218	  0.086630	  0.017360	  0.176637	  0.207723	  0.086236	
26.699	  0.012467	  0.078017	  0.186602	  0.194619	  0.225717	  0.089450	  0.038693	  0.036550	  0.186085	  0.094226	  0.016850	  0.088951	  0.017480	  0.175408	  0.208818	  0.091133	
26.700	  0.012467	  0.080337	  0.194146	  0.196503	  0.240625	  0.090229	  0.038753	  0.037996	  0.189283	  0.093132	  0.016495	  0.091309	  0.017595	  0.174200	  0.209999	  0.096130	
26.701	  0.012467	  0.082786	  0.201805	  0.198411	  0.255953	  0.091083	  0.038828	  0.039566	  0.192590	  0.092007	  0.016154	  0.093701	  0.017705	  0.173010	  0.211266	  0.101220	
26.702	  0.012467	  0.085366	  0.209571	  0.200343	  0.271686	  0.092006	  0.038918	  0.041256	  0.196005	  0.090854	  0.015826	  0.096123	  0.017809	  0.171836	  0.212623	  0.106394	
26.703	  0.012467	  0.088079	  0.217439	  0.202298	  0.287808	  0.092987	  0.039024	  0.043063	  0.199530	  0.089674	  0.015511	  0.098574	  0.017908	  0.170675	  0.214071	  0.111644	
26.704	  0.012467	  0.090928	  0.225401	  0.204274	  0.304298	  0.094020	  0.039146	  0.044979	  0.203163	  0.088469	  0.015208	  0.101048	  0.018001	  0.169523	  0.215611	  0.116961	
26.705	  0.012467	  0.093912	  0.233449	  0.206269	  0.321138	  0.095094	  0.039283	  0.047000	  0.206906	  0.087239	  0.014918	  0.103544	  0.018088	  0.168379	  0.217243	  0.122336	
26.706	  0.012467	  0.097035	  0.241575	  0.208282	  0.338305	  0.096202	  0.039435	  0.049119	  0.210757	  0.085986	  0.014639	  0.106057	  0.018170	  0.167240	  0.218970	  0.127759	
26.707	  0.012467	  0.100296	  0.249773	  0.210310	  0.355776	  0.097334	  0.039603	  0.051330	  0.214717	  0.084713	  0.014373	  0.108583	  0.018246	  0.166103	  0.220791	  0.133220	
26.708	  0.012467	  0.103696	  0.258034	  0.212351	  0.373527	  0.098481	  0.039787	  0.053625	  0.218787	  0.083420	  0.014118	  0.111119	  0.018316	  0.164966	  0.222706	  0.138710	
26.709	  0.012467	  0.107236	  0.266350	  0.214402	  0.391532	  0.099634	  0.039985	  0.055998	  0.222965	  0.082110	  0.013875	  0.113659	  0.018381	  0.163828	  0.224714	  0.144216	
26.710	  0.012467	  0.110914	  0.274712	  0.216460	  0.409765	  0.100784	  0.040199	  0.058440	  0.227252	  0.080784	  0.013643	  0.116199	  0.018441	  0.162686	  0.226815	  0.149730	
26.711	  0.012467	  0.114730	  0.283113	  0.218522	  0.428197	  0.101922	  0.040428	  0.060944	  0.231648	  0.079443	  0.013421	  0.118735	  0.018495	  0.161538	  0.229007	  0.155239	
26.712	  0.012467	  0.118682	  0.291543	  0.220585	  0.446799	  0.103038	  0.040672	  0.063501	  0.236153	  0.078090	  0.013211	  0.121261	  0.018544	  0.160383	  0.231289	  0.160733	
26.713	  0.012467	  0.122770	  0.299994	  0.222644	  0.465541	  0.104123	  0.040930	  0.066103	  0.240767	  0.076727	  0.013011	  0.123773	  0.018589	  0.159219	  0.233658	  0.166200	
26.714	  0.012467	  0.126990	  0.308458	  0.224696	  0.484393	  0.105170	  0.041203	  0.068740	  0.245490	  0.075355	  0.012821	  0.126264	  0.018628	  0.158046	  0.236111	  0.171629	
26.715	  0.012467	  0.131341	  0.316926	  0.226736	  0.503321	  0.106168	  0.041491	  0.071404	  0.250321	  0.073976	  0.012640	  0.128731	  0.018663	  0.156861	  0.238646	  0.177008	
26.716	  0.012467	  0.135819	  0.325389	  0.228760	  0.522294	  0.107110	  0.041792	  0.074086	  0.255262	  0.072592	  0.012470	  0.131167	  0.018694	  0.155665	  0.241258	  0.182326	
26.717	  0.012467	  0.140421	  0.333840	  0.230764	  0.541278	  0.107987	  0.042108	  0.076777	  0.260311	  0.071204	  0.012309	  0.133567	  0.018720	  0.154457	  0.243944	  0.187571	
26.718	  0.012467	  0.145143	  0.342270	  0.232742	  0.560239	  0.108792	  0.042437	  0.079467	  0.265470	  0.069815	  0.012157	  0.135925	  0.018743	  0.153236	  0.246699	  0.192732	
26.719	  0.012467	  0.149981	  0.350670	  0.234689	  0.579143	  0.109516	  0.042779	  0.082146	  0.270737	  0.068427	  0.012013	  0.138235	  0.018762	  0.152003	  0.249518	  0.197796	
26.720	  0.012467	  0.154930	  0.359034	  0.236600	  0.597954	  0.110152	  0.043135	  0.084807	  0.276113	  0.067040	  0.011879	  0.140492	  0.018778	  0.150757	  0.252396	  0.202754	
26.721	  0.012467	  0.159984	  0.367353	  0.238470	  0.616638	  0.110695	  0.043503	  0.087439	  0.281597	  0.065658	  0.011752	  0.142691	  0.018791	  0.149499	  0.255327	  0.207593	
26.722	  0.012467	  0.165139	  0.375619	  0.240294	  0.635159	  0.111136	  0.043883	  0.090033	  0.287190	  0.064282	  0.011634	  0.144824	  0.018801	  0.148230	  0.258304	  0.212302	
26.723	  0.012467	  0.170388	  0.383826	  0.242065	  0.653483	  0.111470	  0.044276	  0.092581	  0.292890	  0.062913	  0.011523	  0.146888	  0.018809	  0.146950	  0.261321	  0.216871	
26.724	  0.012467	  0.175724	  0.391967	  0.243777	  0.671573	  0.111691	  0.044680	  0.095074	  0.298697	  0.061554	  0.011419	  0.148875	  0.018815	  0.145661	  0.264370	  0.221289	
26.725	  0.012467	  0.181142	  0.400035	  0.245426	  0.689396	  0.111795	  0.045096	  0.097503	  0.304610	  0.060206	  0.011323	  0.150782	  0.018819	  0.144363	  0.267445	  0.225546	
26.726	  0.012467	  0.186633	  0.408024	  0.247006	  0.706916	  0.111778	  0.045522	  0.099861	  0.310628	  0.058871	  0.011233	  0.152602	  0.018822	  0.143059	  0.270537	  0.229632	
26.727	  0.012467	  0.192191	  0.415928	  0.248509	  0.724100	  0.111634	  0.045960	  0.102139	  0.316751	  0.057551	  0.011150	  0.154331	  0.018823	  0.141749	  0.273639	  0.233538	
26.728	  0.012467	  0.197808	  0.423742	  0.249932	  0.740913	  0.111360	  0.046407	  0.104331	  0.322975	  0.056248	  0.011073	  0.155963	  0.018824	  0.140435	  0.276743	  0.237254	
26.729	  0.012467	  0.203475	  0.431461	  0.251267	  0.757324	  0.110955	  0.046864	  0.106430	  0.329300	  0.054963	  0.011002	  0.157493	  0.018824	  0.139120	  0.279839	  0.240772	
26.730	  0.012467	  0.209185	  0.439079	  0.252509	  0.773299	  0.110416	  0.047330	  0.108430	  0.335723	  0.053697	  0.010937	  0.158918	  0.018824	  0.137806	  0.282918	  0.244084	
26.731	  0.012467	  0.214929	  0.446593	  0.253653	  0.788809	  0.109741	  0.047805	  0.110324	  0.342242	  0.052453	  0.010877	  0.160233	  0.018824	  0.136493	  0.285973	  0.247182	
26.732	  0.012467	  0.220699	  0.453998	  0.254692	  0.803822	  0.108930	  0.048289	  0.112108	  0.348853	  0.051232	  0.010823	  0.161434	  0.018824	  0.135186	  0.288994	  0.250060	
26.733	  0.012467	  0.226485	  0.461290	  0.255622	  0.818311	  0.107982	  0.048780	  0.113777	  0.355554	  0.050036	  0.010773	  0.162517	  0.018825	  0.133885	  0.291971	  0.252711	
26.734	  0.012467	  0.232279	  0.468467	  0.256437	  0.832247	  0.106899	  0.049279	  0.115328	  0.362339	  0.048866	  0.010728	  0.163479	  0.018826	  0.132595	  0.294896	  0.255129	
26.735	  0.012467	  0.238071	  0.475525	  0.257132	  0.845604	  0.105681	  0.049785	  0.116757	  0.369205	  0.047723	  0.010687	  0.164317	  0.018829	  0.131316	  0.297760	  0.257309	
26.736	  0.012467	  0.243853	  0.482461	  0.257702	  0.858358	  0.104330	  0.050297	  0.118063	  0.376147	  0.046609	  0.010651	  0.165028	  0.018833	  0.130051	  0.300552	  0.259246	
26.737	  0.012467	  0.249615	  0.489272	  0.258143	  0.870484	  0.102849	  0.050816	  0.119244	  0.383160	  0.045525	  0.010618	  0.165610	  0.018839	  0.128804	  0.303265	  0.260937	
